PathFileType	4	(X/Y/Z)	C:\Users\WrightLab\Desktop\Jo\P4V122.trc
DataRate	CameraRate	NumFrames	NumMarkers	Units	OrigDataRate	OrigDataStartFrame	OrigNumFrames
100.00	100.00	       28	19	mm	100.00	554	       633
Frame#	Time	Headset_Front			Headset_Back			Headset_Left			Headset_Right			Left_Shoulder			Right_Shoulder			Sternum			C7			Left Elbow			Right Elbow			Left Wrist			Right Wrist			Left ASIS			Right ASIS			S2			Left Knee			Right Knee			Left Ankle			Right Ankle			
		X1	Y1	Z1	X2	Y2	Z2	X3	Y3	Z3	X4	Y4	Z4	X5	Y5	Z5	X6	Y6	Z6	X7	Y7	Z7	X8	Y8	Z8	X9	Y9	Z9	X10	Y10	Z10	X11	Y11	Z11	X12	Y12	Z12	X13	Y13	Z13	X14	Y14	Z14	X15	Y15	Z15	X16	Y16	Z16	X17	Y17	Z17	X18	Y18	Z18	X19	Y19	Z19	

554	5.530				-108.78107	1783.07446	2294.71240							-46.31565	1600.00684	2305.82349				-209.61938	1512.24414	2336.60205				132.65450	1268.97058	2345.51709	-30.14703	1094.26477	2387.72070	91.37938	976.49615	2447.97070				-448.15536	1214.23743	2199.55933	-319.78833	1081.17615	2223.16113				-56.44239	622.96545	2478.03662	-280.73441	595.75110	2238.66479	38.87638	136.78119	2348.63745	-168.65366	103.88672	2222.74097	
555	5.540				-110.76243	1782.71326	2298.71533							-48.53394	1600.52466	2310.48828				-211.49742	1512.37842	2339.53809				130.46606	1269.31738	2349.83008	-32.77452	1094.66064	2391.98901	89.10661	976.26367	2451.25171				-448.97531	1214.54578	2202.72339	-320.90366	1081.45959	2224.96436				-59.59114	623.52405	2480.79565	-280.90775	595.72186	2238.97363	33.51574	132.77057	2366.81665	-168.62314	103.96141	2222.69604	
556	5.550				-112.33582	1783.19849	2302.64868							-49.92970	1600.49597	2314.39258				-213.90990	1512.26343	2343.30347				128.37753	1269.17151	2354.55225	-34.85088	1094.70630	2395.46436	86.09851	976.29053	2455.13403				-449.69873	1214.81970	2205.53271	-321.87097	1081.33374	2226.31396				-62.54945	623.39978	2483.64233	-281.09006	595.64154	2239.31592	28.10872	129.22774	2383.55469	-168.60574	104.04849	2222.66870	
557	5.560				-113.57812	1782.92212	2306.24072							-52.03624	1600.81836	2319.25391				-215.86104	1512.59375	2345.81470				126.27264	1268.95459	2359.51880	-36.91768	1094.89502	2399.25366	83.21169	976.33966	2458.91748				-450.12445	1215.33105	2208.86768	-322.25375	1081.44128	2227.18774				-64.89792	622.95709	2484.43726	-281.31757	595.69702	2239.70679	22.06117	125.67628	2398.59741	-168.59496	104.08324	2222.65259	
558	5.570				-114.96812	1782.97302	2309.58789							-53.77924	1600.80505	2323.58740				-217.47038	1512.54529	2348.64136				123.90108	1269.02759	2364.07471	-38.69587	1094.84937	2402.41992	80.51498	975.67297	2462.73608				-450.86151	1215.50696	2212.83911	-322.82614	1081.59375	2228.40112				-67.08232	621.82172	2487.18042	-281.44778	595.60626	2239.94922	16.44307	122.79110	2415.23975	-168.60435	104.03880	2222.66724	
559	5.580				-116.48777	1782.58899	2313.83960							-55.45702	1600.96472	2327.74658				-219.21582	1512.61450	2351.46265				121.90548	1268.71863	2369.81665	-40.75201	1094.98535	2406.08228	77.05877	975.59424	2467.26904				-451.47754	1215.81824	2215.91626	-323.42743	1081.73828	2229.79370				-68.90571	623.33942	2490.11646	-281.63361	595.58868	2240.33447	10.95618	121.61926	2430.10840	-168.56334	104.17242	2222.60547	
560	5.590				-117.54768	1783.03516	2317.71826							-56.65792	1600.91870	2331.50732				-220.75597	1511.97156	2354.41650				119.61107	1268.68872	2374.99243	-42.92360	1095.21777	2410.05347	73.81867	975.14111	2471.48804				-451.39465	1215.90576	2217.62646	-323.88196	1081.83252	2230.85059				-70.83759	622.52570	2492.52783	-281.71042	595.64545	2240.58862	5.92824	119.83244	2443.90161	-168.65112	104.11829	2222.72778	
561	5.600				-118.55475	1782.97107	2321.55078							-58.38724	1601.01050	2336.40454				-222.35115	1512.38806	2356.94775				117.50009	1267.93994	2380.04785	-45.03226	1095.58374	2413.85107	70.93799	974.40277	2475.27808				-451.16519	1216.13770	2219.80347	-324.46548	1081.85034	2232.14380				-72.60144	621.69232	2494.90112	-281.83664	595.59729	2240.89331	-0.95267	116.56756	2454.14844	-168.50075	104.36398	2222.51196	
562	5.610				-119.23795	1783.19348	2324.73486							-59.45162	1600.79785	2340.12744				-223.97563	1512.28418	2360.05200				115.13291	1267.93774	2386.48169	-47.11628	1095.98645	2417.39746	67.10758	974.25763	2480.35938				-450.83032	1216.09229	2221.71973	-325.14755	1081.87427	2233.58423				-74.26645	622.90491	2498.31909	-281.41971	595.11084	2243.50049	-4.95374	116.63154	2466.76758	-168.52505	104.40504	2222.54346	
563	5.620				-119.99158	1782.89148	2328.61206							-60.60666	1600.73962	2344.19849				-224.89851	1512.59509	2361.92871				113.05862	1267.35083	2391.85156	-49.39955	1096.60107	2421.37451	63.47158	973.85065	2485.27197				-450.41989	1216.17249	2223.53638	-326.20972	1082.02271	2235.52222				-76.06632	622.20660	2500.65430	-281.44974	595.09821	2243.72827	-9.31107	117.87045	2477.40674	-168.50020	104.43143	2222.50830	
564	5.630				-120.61620	1782.99670	2332.16016							-61.50280	1600.80078	2347.93921				-226.48003	1512.95520	2364.84229				110.58041	1266.31970	2397.30884	-51.27275	1096.70911	2425.06128	59.71902	973.32593	2490.43970				-450.12512	1216.11804	2225.09497	-327.14075	1082.35730	2237.65625				-77.62955	623.36151	2504.02905	-281.46835	595.22766	2244.12988	-13.95607	117.11348	2485.88721	-168.50140	104.56668	2222.50439	
565	5.640				-121.13139	1783.20508	2335.70215							-62.25172	1600.51526	2351.45532				-227.23276	1512.25928	2366.76123				108.52270	1266.14136	2404.25635	-53.34508	1097.21741	2428.50195	55.60642	972.73120	2496.09399				-449.42282	1216.05188	2226.67603	-328.05576	1082.53723	2239.37939				-79.12761	622.64709	2506.28955	-281.75366	595.07281	2244.84448	-17.10743	114.93313	2491.20337	-168.55704	104.39733	2224.32178	
566	5.650				-121.29787	1783.18494	2339.70557							-63.08822	1600.26721	2355.43530				-228.24646	1512.64319	2369.23633							-55.27740	1097.64722	2432.20386	51.90969	972.18726	2501.21240				-448.87564	1216.08887	2228.65356	-328.51288	1082.66260	2240.98120				-79.96873	622.04132	2507.73950	-281.92200	595.25842	2246.70044	-20.41207	114.25894	2496.79028	-168.49046	104.44213	2224.22876	
567	5.660				-121.30814	1783.61853	2342.64844							-63.36988	1600.55396	2358.68555				-228.58649	1512.80029	2370.25073							-56.94907	1097.83008	2435.74902	47.76031	971.95190	2506.91797				-448.11627	1216.54810	2230.18701	-329.08267	1083.02808	2243.13892				-82.51887	620.69598	2508.95142	-282.01324	594.35754	2248.99365	-23.00934	115.41869	2501.78345	-168.44646	104.67184	2224.15918	
568	5.670				-121.27525	1783.29626	2346.31030							-63.74716	1600.08032	2361.80737				-229.39127	1513.44531	2372.59106							-58.73270	1098.01111	2439.45264	43.20194	971.40350	2513.25806				-447.37622	1216.99817	2232.08423	-329.75739	1083.24280	2245.45557				-83.00743	620.42242	2510.38306	-283.00754	595.62738	2250.79956	-24.66122	114.31833	2503.85327	-168.43147	104.70193	2224.13721	
569	5.680				-120.80946	1783.00403	2349.31348							-63.29144	1599.57642	2364.43335				-229.89844	1513.88098	2374.84497							-61.04181	1098.18945	2444.12231	38.91371	970.68951	2519.17603				-446.23013	1216.98376	2233.37549	-330.64398	1083.43799	2248.17529				-84.73253	620.13281	2513.97729	-283.10995	595.59479	2253.77539	-25.88523	113.60250	2505.28662	-168.37250	104.84074	2224.05078	
570	5.690				-120.24751	1783.14136	2352.56885							-63.30257	1599.56543	2367.75903				-229.91513	1514.07007	2376.63208							-62.91635	1098.14990	2448.12988	34.56616	970.04834	2525.24854				-445.13605	1217.18176	2234.25562	-331.73352	1083.52991	2251.33911				-85.35866	618.64215	2515.71387	-283.63049	595.62854	2254.66772	-26.63598	112.68656	2505.18896	-168.32484	104.85902	2223.98486	
571	5.700				-119.91253	1783.05042	2355.79419							-62.86856	1599.15002	2369.81055				-229.60297	1514.45850	2378.08521							-64.76673	1097.78845	2452.00488	29.67788	969.70038	2532.11646				-443.97525	1217.47925	2235.69556	-332.90707	1083.92664	2254.59253				-85.71034	617.64252	2517.27808	-284.01556	595.72595	2255.32080	-26.55388	112.98849	2504.52466	-168.31024	104.96414	2223.96045	
572	5.710				-118.73375	1782.85632	2358.64941							-61.87350	1598.50562	2371.80420				-229.46178	1514.93726	2379.22949							-66.81615	1097.17908	2456.25195	24.71394	969.45203	2538.95703				-442.89780	1217.42517	2237.07007							-86.03083	615.82068	2519.29077	-284.56305	595.99390	2257.32373	-26.56913	112.94450	2504.47168	-168.36218	104.97282	2224.03101	
573	5.720				-117.84453	1782.26501	2361.67163							-61.30590	1597.74878	2374.01343				-229.33089	1515.35376	2380.34961							-68.35089	1096.29163	2460.01758	19.69790	969.14996	2545.84863				-441.60352	1217.13965	2237.24463							-87.15620	614.44580	2521.78711	-285.27808	596.00739	2258.69287	-27.09036	113.75925	2504.23022	-168.37366	104.94081	2224.04810	
574	5.730				-116.79081	1781.70837	2364.60889							-60.43629	1597.46863	2377.18481				-228.73781	1515.98425	2381.99854							-70.10961	1095.87537	2464.08032	14.36891	968.52875	2553.12622				-439.75089	1217.14392	2238.34131							-86.86713	612.34735	2523.56958	-285.88797	595.74756	2260.05688	-27.15386	113.60194	2503.99268	-168.32585	104.99930	2223.98022	
575	5.740				-115.75469	1781.16052	2367.54858							-59.14714	1596.80371	2379.07373				-228.04659	1516.72510	2383.91772							-72.02769	1095.68994	2468.60864	9.16081	968.29706	2559.54736				-438.24759	1216.99377	2239.16724							-86.10660	611.14618	2523.98828	-286.32346	595.72687	2262.24243	-27.59257	113.58881	2504.84058	-168.30035	105.01012	2223.94507	
576	5.750				-114.44270	1781.28967	2370.14087							-57.51407	1595.72949	2380.71655				-227.20457	1516.70215	2384.16992							-73.80145	1095.09949	2472.91113	3.63657	967.55115	2566.66113				-436.20508	1216.31201	2239.09644							-86.08421	609.96295	2525.66748	-287.76337	596.09985	2264.96265	-27.62724	113.45522	2504.74194	-168.37648	104.91840	2224.05298	
577	5.760				-113.15327	1781.62695	2373.18823							-55.99505	1594.51807	2381.98291				-226.41537	1517.27966	2386.04883							-75.61012	1094.61951	2476.96655	-2.38673	967.83386	2573.86768				-433.65948	1215.82056	2239.65405							-85.90089	609.04163	2526.59375	-289.47067	596.28821	2269.69067	-27.64248	113.37840	2504.71045	-168.30481	105.01170	2223.95093	
578	5.770				-111.95602	1781.24060	2376.06494							-54.24348	1593.95398	2384.09814				-225.67300	1518.10400	2388.10010							-76.90079	1094.62000	2480.49365	-8.39151	967.72119	2581.42065				-431.30179	1215.23450	2239.67651							-85.42886	608.61768	2527.60181	-290.76126	595.88403	2271.86597	-27.63790	113.34379	2504.75732	-168.31068	105.06635	2223.95679	
579	5.780				-110.38755	1781.47144	2378.55811							-52.57897	1592.81445	2385.69287				-224.95573	1518.64502	2388.91260							-78.31031	1095.32874	2484.16699	-13.96837	968.03656	2587.92236													-85.22263	608.51569	2528.98535	-291.38205	595.85516	2275.28687	-27.62903	113.34200	2504.80591	-168.31096	105.09750	2223.95581	
580	5.790				-109.01204	1781.71619	2381.24438							-50.81636	1592.11694	2386.77002				-223.49292	1519.31238	2390.49438							-79.48703	1095.79993	2487.69849	-20.57327	968.73901	2596.08545													-84.63583	608.58203	2530.05859	-292.69711	595.43713	2277.67432	-27.61981	113.34913	2504.85059	-168.33461	105.26784	2223.98096	
581	5.800				-107.78976	1782.33301	2383.85522							-49.25002	1591.37744	2388.01147				-222.53137	1520.05566	2391.67749							-80.37775	1096.27344	2490.48486	-26.50843	969.72638	2602.68164													-84.43539	608.76318	2532.38135	-294.49887	596.12390	2280.49805	-26.99770	110.65387	2502.77515	-168.26576	105.49021	2223.87720	
